# xmcd
#
# Track frame offsets:
#	187
#	3630
#	17047
#	28497
#	41865
#	55382
#	59300
#	74532
#	92782
#	100310
#	113372
#	118007
#	134975
#	147075
#	153570
#	171015
#	188485
#	194775
#	207565
#	221800
#
# Disc length: 3115 seconds
#
# Revision: 1
# Processed by: cddbd v1.5.1PL0 Copyright (c) Steve Scherf et al.
# Submitted via: CDex 1.50Beta5
#
DISCID=3c0c2914
DTITLE=川井憲次 - サンサーラ・ナーガ2
DYEAR=1995
DGENRE=Anime
TTITLE0=アムリタのモノローグ:プロローグ
TTITLE1=オープニング
TTITLE2=村
TTITLE3=フィールド
TTITLE4=アムリタ
TTITLE5=アムリタのモノローグ:再会
TTITLE6=遊泳
TTITLE7=ギルド
TTITLE8=ローカ・アローカ
TTITLE9=神殿
TTITLE10=アムリタのモノローグ:悔恨
TTITLE11=空中庭園
TTITLE12=飛行
TTITLE13=ダンジョン
TTITLE14=王宮
TTITLE15=戦闘
TTITLE16=アムリタのモノローグ:仮説
TTITLE17=エンディング
TTITLE18=ボーナストラック:スイカ
TTITLE19=はらたま
EXTD=
EXTT0=
EXTT1=
EXTT2=
EXTT3=
EXTT4=
EXTT5=
EXTT6=
EXTT7=
EXTT8=
EXTT9=
EXTT10=
EXTT11=
EXTT12=
EXTT13=
EXTT14=
EXTT15=
EXTT16=
EXTT17=
EXTT18=
EXTT19=
PLAYORDER=
